<svg data-v-423bf9ae="" xmlns="http://www.w3.org/2000/svg" viewBox="0 0 388 104" class="iconLeft"><!----><!----><!----><g data-v-423bf9ae="" id="776b4f5d-87e7-451f-8df5-97fd4004e4c6" fill="white" transform="matrix(5.059021662075736,0,0,5.059021662075736,110.79458674561997,-15.651446792999096)"><path d="M1.27 15.81L1.29 14.59L1.29 14.59Q1.30 14.20 1.30 13.43L1.30 13.43L1.30 13.43Q1.30 11.83 1.09 10.76L1.09 10.76L1.09 10.76Q0.88 9.69 0.28 9.04L0.28 9.04L0.28 9.04Q0.78 8.67 1.36 8.67L1.36 8.67L1.36 8.67Q2.03 8.67 2.39 9.17L2.39 9.17L2.39 9.17Q2.74 9.67 2.88 10.82L2.88 10.82L2.88 10.82Q3.02 11.96 3.02 14.04L3.02 14.04L3.02 14.04Q3.02 17.54 3.01 17.88L3.01 17.88L3.18 17.88L3.18 17.88Q5.14 14.97 6.02 13.18L6.02 13.18L6.02 13.18Q6.90 11.40 6.90 10.47L6.90 10.47L6.90 10.47Q6.90 9.59 6.57 9.04L6.57 9.04L6.57 9.04Q6.99 8.82 7.25 8.74L7.25 8.74L7.25 8.74Q7.50 8.67 7.78 8.67L7.78 8.67L7.78 8.67Q8.18 8.67 8.41 9.00L8.41 9.00L8.41 9.00Q8.64 9.34 8.64 9.90L8.64 9.90L8.64 9.90Q8.64 10.95 7.64 13.06L7.64 13.06L7.64 13.06Q6.64 15.18 4.66 18.19L4.66 18.19L4.93 18.66L4.93 18.66Q4.66 18.91 4.14 19.08L4.14 19.08L4.14 19.08Q3.63 19.25 3.14 19.25L3.14 19.25L3.14 19.25Q2.41 19.25 2.01 18.94L2.01 18.94L2.01 18.94Q1.61 18.63 1.44 17.90L1.44 17.90L1.44 17.90Q1.27 17.16 1.27 15.81L1.27 15.81ZM16.52 18.06L16.52 18.06Q16.52 18.55 16.77 18.79L16.77 18.79L16.77 18.79Q16.34 19.18 15.83 19.18L15.83 19.18L15.83 19.18Q15.36 19.18 15.11 18.89L15.11 18.89L15.11 18.89Q14.85 18.59 14.85 18.03L14.85 18.03L14.85 18.03Q14.85 17.72 14.95 17.19L14.95 17.19L14.81 17.12L14.81 17.12Q14.31 18.10 13.54 18.64L13.54 18.64L13.54 18.64Q12.78 19.18 11.89 19.18L11.89 19.18L11.89 19.18Q11.13 19.18 10.55 18.77L10.55 18.77L10.55 18.77Q9.97 18.37 9.65 17.62L9.65 17.62L9.65 17.62Q9.34 16.87 9.34 15.89L9.34 15.89L9.34 15.89Q9.34 14.38 10.05 13.13L10.05 13.13L10.05 13.13Q10.77 11.87 12.00 11.15L12.00 11.15L12.00 11.15Q13.23 10.43 14.71 10.43L14.71 10.43L14.71 10.43Q15.36 10.43 16.03 10.54L16.03 10.54L16.03 10.54Q16.13 10.71 16.18 10.99L16.18 10.99L16.18 10.99Q16.48 10.78 16.86 10.78L16.86 10.78L16.86 10.78Q17.21 10.78 17.41 10.95L17.41 10.95L17.41 10.95Q17.61 11.12 17.61 11.41L17.61 11.41L17.61 11.41Q17.61 11.73 17.52 12.18L17.52 12.18L17.52 12.18Q17.43 12.63 17.22 13.50L17.22 13.50L17.22 13.50Q16.88 14.91 16.70 15.95L16.70 15.95L16.70 15.95Q16.52 16.98 16.52 18.06L16.52 18.06ZM12.56 17.86L12.56 17.86Q13.86 17.86 14.70 16.21L14.70 16.21L14.70 16.21Q15.54 14.55 15.96 11.20L15.96 11.20L15.96 11.20Q14.45 11.24 13.33 11.87L13.33 11.87L13.33 11.87Q12.22 12.49 11.64 13.52L11.64 13.52L11.64 13.52Q11.06 14.56 11.06 15.85L11.06 15.85L11.06 15.85Q11.06 16.80 11.45 17.33L11.45 17.33L11.45 17.33Q11.84 17.86 12.56 17.86L12.56 17.86ZM21.15 19.18L21.15 19.18Q20.66 19.18 20.43 18.94L20.43 18.94L20.43 18.94Q20.20 18.70 20.20 18.19L20.20 18.19L20.20 18.19Q20.20 17.57 20.57 15.65L20.57 15.65L20.57 15.65Q20.94 13.72 21.42 11.83L21.42 11.83L20.79 11.13L20.79 11.13Q21.13 10.84 21.58 10.65L21.58 10.65L21.58 10.65Q22.04 10.47 22.40 10.47L22.40 10.47L22.40 10.47Q22.82 10.47 22.99 10.64L22.99 10.64L22.99 10.64Q23.16 10.81 23.16 11.24L23.16 11.24L23.16 11.24Q23.16 11.61 23.04 12.07L23.04 12.07L23.04 12.07Q22.92 12.53 22.72 12.92L22.72 12.92L22.86 12.99L22.86 12.99Q24.28 10.43 26.53 10.43L26.53 10.43L26.53 10.43Q27.44 10.43 27.88 10.89L27.88 10.89L27.88 10.89Q28.32 11.34 28.32 12.29L28.32 12.29L28.32 12.29Q28.32 12.85 28.20 13.45L28.20 13.45L28.20 13.45Q28.08 14.06 27.86 14.97L27.86 14.97L27.86 14.97Q27.59 16.03 27.47 16.71L27.47 16.71L27.47 16.71Q27.34 17.39 27.34 18.06L27.34 18.06L27.34 18.06Q27.34 18.56 27.52 18.79L27.52 18.79L27.52 18.79Q27.10 19.18 26.63 19.18L26.63 19.18L26.63 19.18Q26.15 19.18 25.92 18.94L25.92 18.94L25.92 18.94Q25.69 18.70 25.69 18.19L25.69 18.19L25.69 18.19Q25.69 17.65 25.81 16.99L25.81 16.99L25.81 16.99Q25.93 16.32 26.15 15.26L26.15 15.26L26.15 15.26Q26.36 14.38 26.47 13.78L26.47 13.78L26.47 13.78Q26.57 13.19 26.57 12.75L26.57 12.75L26.57 12.75Q26.57 11.62 25.72 11.62L25.72 11.62L25.72 11.62Q24.72 11.62 23.84 12.57L23.84 12.57L23.84 12.57Q22.95 13.51 22.41 15.01L22.41 15.01L22.41 15.01Q21.87 16.51 21.87 18.06L21.87 18.06L21.87 18.06Q21.87 18.58 22.04 18.79L22.04 18.79L22.04 18.79Q21.62 19.18 21.15 19.18L21.15 19.18ZM33.00 9.24L33.00 9.24Q32.55 9.24 32.28 9.02L32.28 9.02L32.28 9.02Q32.02 8.81 32.02 8.44L32.02 8.44L32.02 8.44Q32.02 8.02 32.37 7.71L32.37 7.71L32.37 7.71Q32.72 7.39 33.26 7.39L33.26 7.39L33.26 7.39Q33.73 7.39 33.98 7.61L33.98 7.61L33.98 7.61Q34.24 7.83 34.24 8.18L34.24 8.18L34.24 8.18Q34.24 8.62 33.89 8.93L33.89 8.93L33.89 8.93Q33.54 9.24 33.00 9.24L33.00 9.24ZM31.75 19.18L31.75 19.18Q31.28 19.18 31.04 18.94L31.04 18.94L31.04 18.94Q30.80 18.70 30.80 18.19L30.80 18.19L30.80 18.19Q30.80 17.61 31.07 16.14L31.07 16.14L31.07 16.14Q31.35 14.67 32.00 11.72L32.00 11.72L31.39 11.02L31.39 11.02Q31.72 10.75 32.16 10.59L32.16 10.59L32.16 10.59Q32.61 10.43 32.97 10.43L32.97 10.43L32.97 10.43Q33.39 10.43 33.56 10.61L33.56 10.61L33.56 10.61Q33.74 10.78 33.74 11.20L33.74 11.20L33.74 11.20Q33.74 11.31 33.47 12.40L33.47 12.40L33.47 12.40Q33.04 14.18 32.75 15.62L32.75 15.62L32.75 15.62Q32.47 17.07 32.47 18.06L32.47 18.06L32.47 18.06Q32.47 18.59 32.72 18.80L32.72 18.80L32.72 18.80Q32.26 19.18 31.75 19.18L31.75 19.18ZM37.06 19.18L37.06 19.18Q36.19 19.18 36.19 18.07L36.19 18.07L36.19 18.07Q36.19 17.39 36.64 14.48L36.64 14.48L36.64 14.48Q37.10 11.56 37.52 9.28L37.52 9.28L36.90 8.58L36.90 8.58Q37.23 8.30 37.68 8.14L37.68 8.14L37.68 8.14Q38.14 7.98 38.51 7.98L38.51 7.98L38.51 7.98Q38.91 7.98 39.07 8.16L39.07 8.16L39.07 8.16Q39.24 8.33 39.24 8.75L39.24 8.75L39.24 8.75Q39.24 8.99 39.07 9.79L39.07 9.79L39.07 9.79Q38.91 10.60 38.86 10.84L38.86 10.84L38.86 10.84Q38.40 13.09 38.12 14.83L38.12 14.83L38.12 14.83Q37.83 16.58 37.83 17.93L37.83 17.93L37.83 17.93Q37.83 18.20 37.91 18.43L37.91 18.43L37.91 18.43Q37.98 18.66 38.11 18.79L38.11 18.79L38.11 18.79Q37.67 19.18 37.06 19.18L37.06 19.18ZM42.31 19.18L42.31 19.18Q41.44 19.18 41.44 18.07L41.44 18.07L41.44 18.07Q41.44 17.39 41.89 14.48L41.89 14.48L41.89 14.48Q42.35 11.56 42.77 9.28L42.77 9.28L42.15 8.58L42.15 8.58Q42.48 8.30 42.93 8.14L42.93 8.14L42.93 8.14Q43.39 7.98 43.76 7.98L43.76 7.98L43.76 7.98Q44.16 7.98 44.32 8.16L44.32 8.16L44.32 8.16Q44.49 8.33 44.49 8.75L44.49 8.75L44.49 8.75Q44.49 8.99 44.32 9.79L44.32 9.79L44.32 9.79Q44.16 10.60 44.11 10.84L44.11 10.84L44.11 10.84Q43.65 13.09 43.37 14.83L43.37 14.83L43.37 14.83Q43.08 16.58 43.08 17.93L43.08 17.93L43.08 17.93Q43.08 18.20 43.16 18.43L43.16 18.43L43.16 18.43Q43.23 18.66 43.36 18.79L43.36 18.79L43.36 18.79Q42.92 19.18 42.31 19.18L42.31 19.18ZM53.54 18.06L53.54 18.06Q53.54 18.55 53.79 18.79L53.79 18.79L53.79 18.79Q53.35 19.18 52.85 19.18L52.85 19.18L52.85 19.18Q52.37 19.18 52.12 18.89L52.12 18.89L52.12 18.89Q51.87 18.59 51.87 18.03L51.87 18.03L51.87 18.03Q51.87 17.72 51.97 17.19L51.97 17.19L51.83 17.12L51.83 17.12Q51.32 18.10 50.56 18.64L50.56 18.64L50.56 18.64Q49.80 19.18 48.90 19.18L48.90 19.18L48.90 19.18Q48.15 19.18 47.56 18.77L47.56 18.77L47.56 18.77Q46.98 18.37 46.67 17.62L46.67 17.62L46.67 17.62Q46.35 16.87 46.35 15.89L46.35 15.89L46.35 15.89Q46.35 14.38 47.07 13.13L47.07 13.13L47.07 13.13Q47.78 11.87 49.01 11.15L49.01 11.15L49.01 11.15Q50.25 10.43 51.73 10.43L51.73 10.43L51.73 10.43Q52.37 10.43 53.05 10.54L53.05 10.54L53.05 10.54Q53.14 10.71 53.20 10.99L53.20 10.99L53.20 10.99Q53.49 10.78 53.87 10.78L53.87 10.78L53.87 10.78Q54.22 10.78 54.42 10.95L54.42 10.95L54.42 10.95Q54.63 11.12 54.63 11.41L54.63 11.41L54.63 11.41Q54.63 11.73 54.54 12.18L54.54 12.18L54.54 12.18Q54.45 12.63 54.24 13.50L54.24 13.50L54.24 13.50Q53.90 14.91 53.72 15.95L53.72 15.95L53.72 15.95Q53.54 16.98 53.54 18.06L53.54 18.06ZM49.57 17.86L49.57 17.86Q50.88 17.86 51.72 16.21L51.72 16.21L51.72 16.21Q52.56 14.55 52.98 11.20L52.98 11.20L52.98 11.20Q51.46 11.24 50.35 11.87L50.35 11.87L50.35 11.87Q49.24 12.49 48.66 13.52L48.66 13.52L48.66 13.52Q48.08 14.56 48.08 15.85L48.08 15.85L48.08 15.85Q48.08 16.80 48.47 17.33L48.47 17.33L48.47 17.33Q48.86 17.86 49.57 17.86L49.57 17.86Z"></path></g><!----><g data-v-423bf9ae="" id="4d297e59-a670-4fc4-87d7-ac10e63edf46" transform="matrix(1.0722222222222222,0,0,1.0722222222222222,-6.611111111111107,-1.9152777777777743)" stroke="none" fill="white"><path d="M85.368 55.688h-.004l-26.018 13.55h.139C55.291 71.423 52 77.078 52 81.806V99l33.508-17.521C89.701 79.295 93 73.639 93 68.911V51.717l-7.632 3.971zM14.632 49.671h.004l26.018 13.55h-.139C44.709 65.405 48 71.06 48 75.789v17.194L14.492 75.461C10.299 73.277 7 67.621 7 62.893V45.7l7.632 3.971zM77.116 35.675h-.083L57.479 45.837h.119C54.454 47.476 52 51.717 52 55.264V68.16l25.256-13.141C80.401 53.38 83 49.138 83 45.592V32.696l-5.884 2.979zM22.884 29.657h.083L42.521 39.82h-.119C45.546 41.458 48 45.7 48 49.246v12.896L22.744 49C19.599 47.362 17 43.12 17 39.574V26.678l5.884 2.979zM68.364 22.539h.088l-12.964 6.775h.162c-2.097 1.092-3.65 3.92-3.65 6.284v8.596l16.504-8.76C70.601 34.343 72 31.515 72 29.151v-8.596l-3.636 1.984zM59.534 18.605c.129-1.98-1.061-3.913-2.308-5.737L50.139 2.5l-6.416 9.01c-1.354 1.938-.908 4.674.992 6.081 1.611 1.194 3.515 2.428 4.864 3.954 1.41 1.595 1.755 3.317 1.969 5.314.229-.084 5.343-3.45 7.001-5.696.634-.858.93-1.713.985-2.558zM31.636 16.521h-.088l12.964 6.775h-.162c2.097 1.092 3.65 3.92 3.65 6.284v8.596l-16.504-8.76C29.399 28.325 28 25.497 28 23.133v-8.596l3.636 1.984z"></path></g><!----></svg>